<svg xmlns="http://www.w3.org/2000/svg" viewBox="0 0 6275.69 1676.23">
	<g id="e2">
		<path d="M6154,425.39c-78.39-74.79-181.29-113-289.4-108.11-199.85,9.39-363.73,173.28-373.09,373.13-5.05,108.24,33.34,211,108.13,289.35s175.63,121.64,283.74,121.64c122.08,0,235.13-55.74,310.15-152.93a47.49,47.49,0,1,0-75.32-57.85c-56.84,73.37-142.43,115.45-234.83,115.45-145.45,0-269.69-106.51-292.85-249.27h637.65c26.13,0,47.43-21.06,47.48-47v-.69C6275.69,601,6232.48,500.25,6154,425.39ZM5590.56,661.46c23.17-142.77,147.42-249.28,292.85-249.28s269.68,106.51,292.83,249.28Z" transform="translate(0)" />
	</g>
	<g id="v">
		<path d="M5448.91,361.21a48.61,48.61,0,0,1,1.25,46.88l-329.74,643.33c-11.48,22.39-33.85,36.29-58.39,36.29s-46.9-13.9-58.38-36.29L4673.93,408.09a48.68,48.68,0,0,1,1.26-46.9,45.45,45.45,0,0,1,80.33,2.29l306.51,598,306.54-598a45.45,45.45,0,0,1,80.34-2.27Z" transform="translate(0)" />
	</g>
	<g id="e1">
		<path d="M4510.26,425.39c-78.39-74.79-181.23-113-289.4-108.11-199.86,9.39-363.73,173.28-373.08,373.13-5.06,108.22,33.33,211,108.12,289.35s175.63,121.64,283.74,121.64c122.09,0,235.14-55.74,310.15-152.93a47.49,47.49,0,1,0-75.32-57.85c-56.83,73.37-142.42,115.45-234.83,115.45-145.45,0-269.7-106.5-292.85-249.27h637.35c26.32,0,47.76-21.2,47.78-47.27v-.39C4631.92,601,4588.71,500.25,4510.26,425.39ZM3946.79,661.46c23.17-142.77,147.42-249.28,292.85-249.28s269.68,106.51,292.83,249.28Z" transform="translate(0)" />
	</g>
	<g id="l">
		<path d="M3793.69,1039.87v.05a47.55,47.55,0,0,1-18.73,38,46.61,46.61,0,0,1-40.7,8.24,199.35,199.35,0,0,1-148.05-192.46v-846a47.67,47.67,0,0,1,95.33,0v846a104,104,0,0,0,76.73,100.18A47.87,47.87,0,0,1,3793.69,1039.87Z" transform="translate(0)" />
	</g>
	<g id="a2">
		<path d="M3363.21,541.67a47.54,47.54,0,0,0-47.49,47.48v63.16c-72-83.42-178.36-136.39-296.94-136.39-216.3,0-392.28,176-392.28,392.28s176,392.28,392.28,392.28c118.58,0,224.95-53,296.94-136.39v63.14a47.54,47.54,0,0,0,47.49,47.5h.35a47.54,47.54,0,0,0,47.49-47.5V589.15A47.61,47.61,0,0,0,3363.21,541.67Zm-344.43,663.47c-163.74,0-297-133.22-297-296.94s133.21-297,297-297,296.94,133.21,296.94,297S3182.52,1205.14,3018.78,1205.14Z" transform="translate(0)" />
	</g>
	<g id="g">
		<path d="M2481.21,541.66a47.53,47.53,0,0,0-47.49,47.49v63.16c-72-83.43-178.36-136.39-296.94-136.39-216.3,0-392.28,176-392.28,392.28s176,392.28,392.28,392.28c118.58,0,224.95-53,296.94-136.39v131.19c0,75.82-31.21,150.24-85.64,204.19-53.62,53.14-123.43,81.85-197.48,81.41a280.39,280.39,0,0,1-256.87-173.59,47.51,47.51,0,0,0-83.51-8.31,46.79,46.79,0,0,0-4.5,43.94c58.39,141.93,194.57,233.31,347.4,233.31h2.25c206.05-1.21,373.69-172.41,373.69-381.64V589.15A47.62,47.62,0,0,0,2481.21,541.66Zm-344.43,663.48c-163.74,0-297-133.22-297-296.94s133.21-297,297-297,296.94,133.21,296.94,297S2300.52,1205.14,2136.78,1205.14Z" transform="translate(0)" />
	</g>
	<g id="a1">
		<path d="M1599.4,541.67a47.71,47.71,0,0,0-47.67,47.65v63c-72-83.42-178.36-136.39-296.94-136.39-216.3,0-392.28,176-392.28,392.28s176,392.28,392.28,392.28c118.58,0,225-53,296.94-136.39v63a47.67,47.67,0,1,0,95.33,0V589.32A47.71,47.71,0,0,0,1599.4,541.67Zm-344.61,663.47c-163.74,0-296.95-133.22-296.95-296.94s133.21-297,296.95-297,296.94,133.21,296.94,297S1418.53,1205.14,1254.79,1205.14Z" transform="translate(0)" />
	</g>
	<g id="p">
		<path d="M392.28,515.92c-118.58,0-225,53-296.95,136.39v-63a47.67,47.67,0,0,0-95.33,0v882a47.67,47.67,0,1,0,95.33,0V1164.09c72,83.43,178.37,136.39,297,136.39,216.3,0,392.28-176,392.28-392.28S608.58,515.92,392.28,515.92Zm0,689.22c-163.74,0-296.95-133.22-296.95-296.94s133.21-297,297-297,296.94,133.21,296.94,297S556,1205.14,392.28,1205.14Z" transform="translate(0)" />
	</g>
</svg>
